<svg id="visual" viewBox="0 0 1920 1080" width="1920" height="1080" xmlns="http://www.w3.org/2000/svg" xmlns:xlink="http://www.w3.org/1999/xlink" version="1.1"><rect x="0" y="0" width="1920" height="1080" fill="#001220"></rect><path d="M0 680L45.7 687.8C91.3 695.7 182.7 711.3 274.2 729.3C365.7 747.3 457.3 767.7 548.8 767C640.3 766.3 731.7 744.7 823 728C914.3 711.3 1005.7 699.7 1097 705.5C1188.3 711.3 1279.7 734.7 1371.2 746.3C1462.7 758 1554.3 758 1645.8 753.8C1737.3 749.7 1828.7 741.3 1874.3 737.2L1920 733L1920 1081L1874.3 1081C1828.7 1081 1737.3 1081 1645.8 1081C1554.3 1081 1462.7 1081 1371.2 1081C1279.7 1081 1188.3 1081 1097 1081C1005.7 1081 914.3 1081 823 1081C731.7 1081 640.3 1081 548.8 1081C457.3 1081 365.7 1081 274.2 1081C182.7 1081 91.3 1081 45.7 1081L0 1081Z" fill="#0066ff"></path><path d="M0 769L45.7 781.8C91.3 794.7 182.7 820.3 274.2 829.8C365.7 839.3 457.3 832.7 548.8 829.5C640.3 826.3 731.7 826.7 823 825.2C914.3 823.7 1005.7 820.3 1097 811C1188.3 801.7 1279.7 786.3 1371.2 776.2C1462.7 766 1554.3 761 1645.8 769.3C1737.3 777.7 1828.7 799.3 1874.3 810.2L1920 821L1920 1081L1874.3 1081C1828.7 1081 1737.3 1081 1645.8 1081C1554.3 1081 1462.7 1081 1371.2 1081C1279.7 1081 1188.3 1081 1097 1081C1005.7 1081 914.3 1081 823 1081C731.7 1081 640.3 1081 548.8 1081C457.3 1081 365.7 1081 274.2 1081C182.7 1081 91.3 1081 45.7 1081L0 1081Z" fill="#005aff"></path><path d="M0 816L45.7 824C91.3 832 182.7 848 274.2 847C365.7 846 457.3 828 548.8 823.5C640.3 819 731.7 828 823 835.7C914.3 843.3 1005.7 849.7 1097 845.8C1188.3 842 1279.7 828 1371.2 830.2C1462.7 832.3 1554.3 850.7 1645.8 848.7C1737.3 846.7 1828.7 824.3 1874.3 813.2L1920 802L1920 1081L1874.3 1081C1828.7 1081 1737.3 1081 1645.8 1081C1554.3 1081 1462.7 1081 1371.2 1081C1279.7 1081 1188.3 1081 1097 1081C1005.7 1081 914.3 1081 823 1081C731.7 1081 640.3 1081 548.8 1081C457.3 1081 365.7 1081 274.2 1081C182.7 1081 91.3 1081 45.7 1081L0 1081Z" fill="#004cff"></path><path d="M0 946L45.7 941.8C91.3 937.7 182.7 929.3 274.2 924C365.7 918.7 457.3 916.3 548.8 916.5C640.3 916.7 731.7 919.3 823 919C914.3 918.7 1005.7 915.3 1097 913.7C1188.3 912 1279.7 912 1371.2 921C1462.7 930 1554.3 948 1645.8 944.5C1737.3 941 1828.7 916 1874.3 903.5L1920 891L1920 1081L1874.3 1081C1828.7 1081 1737.3 1081 1645.8 1081C1554.3 1081 1462.7 1081 1371.2 1081C1279.7 1081 1188.3 1081 1097 1081C1005.7 1081 914.3 1081 823 1081C731.7 1081 640.3 1081 548.8 1081C457.3 1081 365.7 1081 274.2 1081C182.7 1081 91.3 1081 45.7 1081L0 1081Z" fill="#003cff"></path><path d="M0 952L45.7 952.2C91.3 952.3 182.7 952.7 274.2 966C365.7 979.3 457.3 1005.7 548.8 1014.8C640.3 1024 731.7 1016 823 1014.8C914.3 1013.7 1005.7 1019.3 1097 1022.7C1188.3 1026 1279.7 1027 1371.2 1019.5C1462.7 1012 1554.3 996 1645.8 990.8C1737.3 985.7 1828.7 991.3 1874.3 994.2L1920 997L1920 1081L1874.3 1081C1828.7 1081 1737.3 1081 1645.8 1081C1554.3 1081 1462.7 1081 1371.2 1081C1279.7 1081 1188.3 1081 1097 1081C1005.7 1081 914.3 1081 823 1081C731.7 1081 640.3 1081 548.8 1081C457.3 1081 365.7 1081 274.2 1081C182.7 1081 91.3 1081 45.7 1081L0 1081Z" fill="#0027ff"></path></svg>