<!--?xml version="1.0" standalone="no"?-->
              <svg id="sw-js-blob-svg" viewBox="0 0 100 100" xmlns="http://www.w3.org/2000/svg" version="1.1">
                    <defs> 
                        <linearGradient id="sw-gradient" x1="0" x2="1" y1="1" y2="0">
                            <stop id="stop1" stop-color="rgba(16.476, 215.346, 208.609, 1)" offset="0%" style="--darkreader-inline-stopcolor: #0daca7;" data-darkreader-inline-stopcolor=""></stop>
                            <stop id="stop2" stop-color="rgba(0, 60.029, 235.723, 1)" offset="100%" style="--darkreader-inline-stopcolor: #0030bd;" data-darkreader-inline-stopcolor=""></stop>
                        </linearGradient>
                    </defs>
                <path fill="url(#sw-gradient)" d="M23.2,-25.5C31.2,-20.8,39.8,-14.7,41.1,-7.3C42.4,0.2,36.4,8.9,30.8,17C25.2,25.2,20,32.8,12.1,37.5C4.3,42.1,-6.1,43.8,-15.1,40.9C-24.1,37.9,-31.7,30.3,-35.3,21.6C-38.9,12.9,-38.5,3.1,-35.7,-5.2C-33,-13.5,-27.8,-20.2,-21.4,-25.1C-15.1,-30.1,-7.5,-33.2,0,-33.3C7.6,-33.3,15.1,-30.1,23.2,-25.5Z" width="100%" height="100%" transform="translate(50 50)" style="transition: all 0.3s ease 0s;" stroke-width="0"></path>
              </svg>